<?xml version="1.0" standalone="no"?>
<!DOCTYPE svg PUBLIC "-//W3C//DTD SVG 20010904//EN"
 "http://www.w3.org/TR/2001/REC-SVG-20010904/DTD/svg10.dtd">
<svg version="1.0" xmlns="http://www.w3.org/2000/svg"
 width="128.000000pt" height="128.000000pt" viewBox="0 0 128.000000 128.000000"
 preserveAspectRatio="xMidYMid meet">

<g transform="translate(0.000000,128.000000) scale(0.100000,-0.100000)"
fill="#000000" stroke="none">
<path d="M39 1203 c-11 -13 -14 -69 -14 -265 0 -236 1 -250 19 -264 16 -11 70
-14 271 -14 231 0 253 1 268 18 15 16 17 50 17 265 0 210 -2 248 -16 261 -13
14 -52 16 -273 16 -228 0 -260 -2 -272 -17z m526 -263 l0 -245 -252 -3 -253
-2 0 250 0 250 253 -2 252 -3 0 -245z"/>
<path d="M237 948 c-36 -62 -63 -116 -61 -120 9 -13 274 -10 274 4 0 20 -124
228 -136 228 -7 0 -41 -50 -77 -112z m81 -96 c-50 -1 -93 -1 -95 2 -2 2 17 41
43 85 l47 81 48 -82 48 -83 -91 -3z"/>
<path d="M696 1204 c-14 -13 -16 -51 -16 -263 0 -227 2 -249 18 -264 16 -15
50 -17 268 -17 200 0 254 3 270 14 18 14 19 28 19 264 0 196 -3 252 -14 265
-12 15 -44 17 -272 17 -221 0 -260 -2 -273 -16z m524 -264 l0 -250 -252 2
-253 3 -3 235 c-1 129 0 240 2 247 4 10 62 13 256 13 l250 0 0 -250z"/>
<path d="M850 1041 c-5 -11 -10 -56 -10 -101 0 -120 0 -120 123 -120 67 0 107
4 115 12 16 16 16 200 0 216 -8 8 -48 12 -115 12 -91 0 -103 -2 -113 -19z
m210 -101 l0 -91 -92 3 -93 3 -3 88 -3 87 96 0 95 0 0 -90z"/>
<path d="M44 606 c-18 -14 -19 -28 -19 -264 0 -196 3 -252 14 -265 12 -15 44
-17 272 -17 221 0 260 2 273 16 14 13 16 51 16 263 0 227 -2 249 -18 264 -16
15 -50 17 -268 17 -200 0 -254 -3 -270 -14z m521 -266 l0 -245 -252 -3 -253
-2 0 250 0 250 253 -2 252 -3 0 -245z"/>
<path d="M90 464 c0 -45 24 -42 28 4 2 24 -1 32 -12 32 -12 0 -16 -10 -16 -36z"/>
<path d="M280 459 c-53 -11 -90 -61 -90 -122 0 -42 5 -54 33 -82 79 -79 196
-41 214 68 13 85 -67 155 -157 136z m105 -61 c40 -48 29 -110 -27 -142 -62
-37 -138 8 -138 83 0 47 22 78 63 89 46 12 74 4 102 -30z"/>
<path d="M92 293 c4 -140 23 -141 23 -1 0 74 -4 103 -13 106 -10 3 -12 -20
-10 -105z"/>
<path d="M697 602 c-15 -16 -17 -50 -17 -265 0 -210 2 -248 16 -261 13 -14 52
-16 273 -16 228 0 260 2 272 17 11 13 14 69 14 265 0 236 -1 250 -19 264 -16
11 -70 14 -271 14 -231 0 -253 -1 -268 -18z m523 -262 l0 -250 -252 2 -253 3
-3 235 c-1 129 0 240 2 247 4 10 62 13 256 13 l250 0 0 -250z"/>
<path d="M933 436 c-13 -28 -23 -36 -55 -41 -51 -9 -58 -29 -23 -65 24 -25 26
-33 20 -69 -8 -50 10 -62 58 -39 29 14 35 14 64 0 47 -22 67 -10 60 37 -4 33
-1 43 19 62 35 33 28 60 -19 73 -25 7 -44 22 -57 44 -25 41 -46 41 -67 -2z
m52 -36 c9 -17 24 -30 34 -30 11 0 27 -3 35 -6 14 -5 12 -10 -9 -30 -22 -20
-25 -29 -19 -60 l7 -36 -33 17 c-30 16 -36 16 -66 2 l-33 -16 6 35 c4 27 1 40
-16 58 -24 25 -19 36 16 36 16 0 30 10 41 30 9 16 18 30 19 30 1 0 9 -13 18
-30z"/>
</g>
</svg>
