<?xml version="1.0" standalone="no"?>
<!DOCTYPE svg PUBLIC "-//W3C//DTD SVG 20010904//EN"
 "http://www.w3.org/TR/2001/REC-SVG-20010904/DTD/svg10.dtd">
<svg version="1.0" xmlns="http://www.w3.org/2000/svg"
 width="800.000000pt" height="800.000000pt" viewBox="0 0 800.000000 800.000000"
 preserveAspectRatio="xMidYMid meet">
<metadata>
Created by potrace 1.16, written by Peter Selinger 2001-2019
</metadata>
<g transform="translate(0.000000,800.000000) scale(0.100000,-0.100000)"
fill="#000000" stroke="none">
<path d="M2927 6146 c-91 -34 -166 -107 -211 -207 -123 -268 -59 -628 136
-763 47 -32 66 -39 120 -43 60 -5 66 -4 82 18 9 13 16 32 16 42 0 28 -45 67
-78 67 -40 0 -91 37 -130 94 -93 139 -103 374 -22 536 93 185 239 176 331 -19
35 -73 42 -81 81 -81 40 0 70 37 62 75 -11 51 -63 144 -107 192 -76 83 -195
121 -280 89z"/>
<path d="M4995 6147 c-293 -96 -376 -652 -138 -917 102 -114 273 -138 273 -39
0 13 -4 29 -8 35 -11 17 -48 34 -75 34 -40 0 -100 52 -135 118 -93 175 -76
450 35 583 37 43 101 71 144 62 46 -9 121 -86 144 -148 10 -28 26 -58 36 -69
36 -39 109 -10 109 43 0 43 -63 162 -114 214 -77 79 -184 112 -271 84z"/>
<path d="M2170 5694 c-147 -39 -258 -155 -289 -302 -8 -38 -11 -498 -11 -1620
0 -1730 -4 -1629 63 -1741 38 -64 121 -133 197 -164 l55 -22 1815 0 1815 0 55
22 c76 31 159 100 197 164 67 112 63 11 63 1741 0 1122 -3 1582 -11 1620 -23
108 -88 200 -180 255 -99 59 -133 63 -540 63 -342 0 -368 -1 -390 -18 -25 -21
-31 -74 -10 -95 9 -9 114 -13 399 -17 378 -5 388 -6 437 -28 63 -29 100 -64
133 -127 27 -50 27 -52 27 -265 l0 -215 -1995 0 -1995 0 0 215 c0 213 0 215
27 265 33 63 70 98 133 127 42 18 73 23 193 28 127 4 145 7 158 24 20 29 17
54 -11 81 -23 24 -29 25 -152 24 -79 0 -149 -6 -183 -15z m3828 -2201 l-3
-1318 -27 -50 c-33 -63 -70 -98 -133 -127 l-50 -23 -1785 0 -1785 0 -50 23
c-63 29 -100 64 -133 127 l-27 50 -3 1318 -2 1317 2000 0 2000 0 -2 -1317z"/>
<path d="M2428 4383 c-47 -30 -58 -68 -58 -203 0 -201 19 -220 214 -220 215 0
226 11 226 222 l0 148 -29 32 -29 33 -149 3 c-126 2 -152 0 -175 -15z"/>
<path d="M3138 4385 c-49 -27 -58 -60 -58 -206 0 -121 2 -136 22 -165 13 -18
33 -38 46 -43 13 -6 81 -11 153 -11 207 0 219 13 219 229 l0 141 -29 32 -29
33 -149 2 c-117 2 -154 0 -175 -12z"/>
<path d="M3851 4374 c-41 -34 -51 -79 -48 -216 2 -100 5 -120 23 -145 36 -49
57 -54 211 -51 134 3 143 4 167 27 39 37 49 84 45 220 l-4 123 -37 34 -38 34
-144 0 c-141 0 -145 -1 -175 -26z"/>
<path d="M4565 4378 c-44 -34 -52 -70 -50 -208 2 -138 9 -161 58 -190 28 -17
51 -20 168 -20 125 0 139 2 164 22 44 34 55 75 55 198 0 123 -11 164 -55 198
-25 20 -39 22 -170 22 -131 0 -145 -2 -170 -22z"/>
<path d="M5278 4384 c-48 -26 -58 -59 -58 -203 0 -72 5 -140 11 -153 5 -13 25
-33 43 -46 29 -20 44 -22 167 -22 116 0 138 3 163 19 49 33 55 54 56 199 0
209 -13 222 -222 222 -98 -1 -140 -5 -160 -16z"/>
<path d="M2429 3625 c-46 -25 -59 -70 -59 -205 0 -202 18 -220 220 -220 210 0
220 10 220 222 l0 148 -29 32 -29 33 -149 2 c-115 2 -154 0 -174 -12z"/>
<path d="M3138 3624 c-49 -26 -58 -59 -58 -204 0 -204 16 -220 220 -220 209 0
220 11 220 218 0 157 -7 179 -61 208 -40 20 -283 19 -321 -2z"/>
<path d="M3852 3615 c-44 -36 -52 -72 -49 -210 2 -108 5 -127 23 -152 35 -47
58 -53 207 -53 l137 0 38 34 37 34 4 123 c4 141 -6 187 -50 223 -30 25 -34 26
-174 26 -139 0 -144 -1 -173 -25z"/>
<path d="M4561 3614 c-43 -36 -54 -82 -50 -217 4 -98 7 -120 25 -144 35 -47
58 -53 205 -53 125 0 139 2 164 22 44 34 55 75 55 198 0 123 -11 164 -55 198
-25 20 -39 22 -171 22 -138 0 -143 -1 -173 -26z"/>
<path d="M5278 3624 c-49 -26 -58 -59 -58 -204 0 -206 14 -220 220 -220 206 0
220 14 220 220 0 206 -14 220 -222 220 -98 -1 -140 -5 -160 -16z"/>
<path d="M2428 2864 c-48 -26 -58 -60 -58 -201 0 -143 7 -165 59 -200 31 -21
45 -23 163 -23 206 0 218 13 218 231 l0 141 -34 34 -34 34 -143 0 c-108 -1
-151 -5 -171 -16z"/>
<path d="M3134 2861 c-48 -29 -56 -62 -52 -215 l3 -136 33 -32 32 -33 139 -3
c218 -5 231 7 231 229 l0 141 -34 34 -34 34 -143 0 c-123 0 -148 -3 -175 -19z"/>
<path d="M3851 2854 c-39 -32 -49 -74 -50 -199 0 -119 12 -161 58 -192 31 -21
45 -23 165 -23 203 0 226 23 226 226 0 198 -17 214 -229 214 -135 0 -140 -1
-170 -26z"/>
<path d="M4561 2854 c-40 -33 -51 -77 -50 -199 0 -120 13 -162 58 -192 31 -21
45 -23 160 -23 210 0 234 25 229 235 -5 196 -15 205 -228 205 -134 0 -139 -1
-169 -26z"/>
<path d="M5258 2851 l-33 -29 -3 -145 c-5 -220 11 -237 218 -237 207 0 223 17
218 237 l-3 145 -33 29 -32 29 -150 0 -150 0 -32 -29z"/>
<path d="M2925 5685 c-30 -29 -32 -58 -5 -85 20 -20 33 -20 833 -20 669 0 816
2 832 14 27 19 24 74 -4 98 -22 17 -61 18 -828 18 l-804 0 -24 -25z"/>
</g>
</svg>
