<?xml version="1.0" standalone="no"?>
<!DOCTYPE svg PUBLIC "-//W3C//DTD SVG 20010904//EN"
 "http://www.w3.org/TR/2001/REC-SVG-20010904/DTD/svg10.dtd">
<svg version="1.0" xmlns="http://www.w3.org/2000/svg"
 width="100.000000pt" height="100.000000pt" viewBox="0 0 100.000000 100.000000"
 preserveAspectRatio="xMidYMid meet">

<g transform="translate(0.000000,100.000000) scale(0.100000,-0.100000)"
fill="#000000" stroke="none">
<path d="M393 946 c-125 -31 -251 -132 -306 -246 -132 -274 39 -601 340 -652
248 -41 483 129 525 380 53 318 -244 594 -559 518z m212 -41 c312 -81 418
-473 191 -701 -241 -240 -651 -107 -709 230 -50 295 226 546 518 471z"/>
<path d="M300 620 c-11 -11 -20 -29 -20 -40 0 -11 9 -29 20 -40 11 -11 29 -20
40 -20 26 0 60 34 60 60 0 11 -9 29 -20 40 -11 11 -29 20 -40 20 -11 0 -29 -9
-40 -20z"/>
<path d="M620 620 c-11 -11 -20 -29 -20 -40 0 -11 9 -29 20 -40 11 -11 29 -20
40 -20 11 0 29 9 40 20 11 11 20 29 20 40 0 11 -9 29 -20 40 -11 11 -29 20
-40 20 -11 0 -29 -9 -40 -20z"/>
<path d="M225 410 c-16 -26 66 -104 151 -142 37 -17 67 -23 124 -23 87 0 143
22 216 81 53 44 71 71 55 87 -7 7 -25 -3 -59 -35 -77 -72 -124 -93 -212 -93
-88 0 -135 21 -210 91 -50 47 -55 50 -65 34z"/>
</g>
</svg>
