<?xml version="1.0" standalone="no"?>
<!DOCTYPE svg PUBLIC "-//W3C//DTD SVG 20010904//EN"
 "http://www.w3.org/TR/2001/REC-SVG-20010904/DTD/svg10.dtd">
<svg version="1.0" xmlns="http://www.w3.org/2000/svg"
 width="512.000000pt" height="512.000000pt" viewBox="0 0 512.000000 512.000000"
 preserveAspectRatio="xMidYMid meet">

<g transform="translate(0.000000,512.000000) scale(0.100000,-0.100000)"
fill="#000000" stroke="none">
<path d="M1280 4480 l0 -210 1493 -2 1492 -3 3 -1067 2 -1068 210 0 210 0 -2
1123 -3 1122 -32 67 c-44 94 -109 160 -202 206 l-75 37 -1548 3 -1548 2 0
-210z"/>
<path d="M750 3826 c-108 -29 -208 -105 -263 -199 -60 -102 -57 -12 -57 -1787
l0 -1625 428 427 427 428 1120 2 1120 3 69 34 c117 57 207 169 235 292 15 64
15 2031 0 2101 -33 153 -158 283 -313 324 -71 19 -2696 19 -2766 0z m2660
-1376 l0 -960 -1157 0 -1158 0 -122 -122 -123 -123 0 1083 0 1082 1280 0 1280
0 0 -960z"/>
</g>
</svg>
