<?xml version="1.0" standalone="no"?>
<!DOCTYPE svg PUBLIC "-//W3C//DTD SVG 20010904//EN"
 "http://www.w3.org/TR/2001/REC-SVG-20010904/DTD/svg10.dtd">
<svg version="1.0" xmlns="http://www.w3.org/2000/svg"
 width="100.000000pt" height="100.000000pt" viewBox="0 0 100.000000 100.000000"
 preserveAspectRatio="xMidYMid meet">

<g transform="translate(0.000000,100.000000) scale(0.100000,-0.100000)"
fill="#000000" stroke="none">
<path d="M45 887 c-3 -7 -4 -140 -3 -297 l3 -285 355 0 355 0 0 295 0 295
-353 3 c-278 2 -354 0 -357 -11z m675 -194 l0 -167 -60 59 -60 59 -83 -82
c-45 -45 -88 -82 -94 -82 -28 0 -23 25 13 61 l37 38 -89 98 c-50 53 -95 98
-101 100 -6 2 -42 -24 -80 -58 -37 -35 -80 -74 -95 -88 l-28 -25 0 127 0 127
320 0 320 0 0 -167z"/>
<path d="M570 785 c-26 -32 13 -81 48 -59 34 22 22 74 -18 74 -10 0 -23 -7
-30 -15z"/>
<path d="M800 781 c0 -12 5 -21 10 -21 6 0 10 -93 10 -260 l0 -260 -320 0
c-207 0 -320 4 -320 10 0 6 -9 10 -21 10 -16 0 -20 -5 -17 -27 l3 -28 355 0
355 0 0 295 0 295 -27 3 c-23 3 -28 -1 -28 -17z"/>
<path d="M900 681 c0 -12 5 -21 10 -21 6 0 10 -93 10 -260 l0 -260 -320 0
c-207 0 -320 4 -320 10 0 6 -9 10 -21 10 -16 0 -20 -5 -17 -27 l3 -28 355 0
355 0 0 295 0 295 -27 3 c-23 3 -28 -1 -28 -17z"/>
</g>
</svg>
