<?xml version="1.0" standalone="no"?>
<!DOCTYPE svg PUBLIC "-//W3C//DTD SVG 20010904//EN"
 "http://www.w3.org/TR/2001/REC-SVG-20010904/DTD/svg10.dtd">
<svg version="1.0" xmlns="http://www.w3.org/2000/svg"
 width="200.000000pt" height="200.000000pt" viewBox="0 0 200.000000 200.000000"
 preserveAspectRatio="xMidYMid meet">

<g transform="translate(0.000000,200.000000) scale(0.100000,-0.100000)"
fill="#000000" stroke="none">
<path d="M885 1748 c-154 -29 -314 -154 -385 -302 -110 -228 -69 -416 167
-776 83 -126 229 -321 293 -391 l40 -44 40 44 c64 70 210 265 293 391 236 360
277 548 167 776 -109 226 -361 350 -615 302z m234 -43 c238 -56 417 -293 398
-525 -10 -109 -71 -253 -190 -445 -56 -91 -238 -341 -296 -405 l-31 -35 -31
35 c-58 64 -240 314 -296 405 -167 270 -215 425 -179 579 66 281 346 456 625
391z"/>
<path d="M890 1604 c-204 -55 -338 -262 -303 -470 29 -167 146 -297 308 -339
244 -63 487 103 521 354 4 32 3 51 -4 51 -5 0 -13 -25 -17 -55 -9 -75 -65
-183 -121 -235 -25 -23 -75 -56 -112 -73 -61 -29 -76 -32 -162 -32 -86 0 -101
3 -162 32 -93 44 -151 100 -196 191 -35 72 -37 81 -37 172 0 91 2 100 37 172
45 91 103 147 196 191 61 29 76 32 162 32 76 0 105 -5 142 -22 26 -12 50 -18
53 -13 8 12 -22 27 -91 45 -72 19 -142 18 -214 -1z"/>
<path d="M1237 1533 c-2 -5 18 -28 45 -52 52 -47 65 -42 22 8 -29 35 -61 55
-67 44z"/>
<path d="M925 1511 c-92 -24 -173 -90 -215 -176 -19 -41 -24 -66 -24 -135 -1
-78 2 -90 33 -148 38 -70 70 -100 145 -140 43 -22 64 -26 136 -26 72 0 93 4
136 26 75 40 107 70 145 140 31 58 34 70 33 148 0 72 -4 93 -26 136 -39 75
-70 107 -137 143 -65 34 -164 49 -226 32z m209 -45 c105 -51 161 -144 161
-266 0 -123 -56 -214 -163 -267 -47 -23 -70 -28 -132 -28 -62 0 -85 5 -132 28
-160 79 -215 278 -118 430 80 126 246 170 384 103z"/>
<path d="M1357 1394 c-7 -8 24 -74 35 -74 11 0 10 5 -6 45 -15 36 -18 39 -29
29z"/>
</g>
</svg>
