<?xml version="1.0" standalone="no"?>
<!DOCTYPE svg PUBLIC "-//W3C//DTD SVG 20010904//EN"
 "http://www.w3.org/TR/2001/REC-SVG-20010904/DTD/svg10.dtd">
<svg version="1.0" xmlns="http://www.w3.org/2000/svg"
 width="512.000000pt" height="512.000000pt" viewBox="0 0 512.000000 512.000000"
 preserveAspectRatio="xMidYMid meet">

<g transform="translate(0.000000,512.000000) scale(0.100000,-0.100000)"
fill="#000000" stroke="none">
<path d="M1377 5106 c-55 -20 -104 -56 -133 -98 -44 -63 -54 -116 -54 -300 l0
-168 -212 0 c-203 0 -215 -1 -264 -24 -27 -13 -66 -42 -87 -66 -60 -71 -67
-105 -67 -350 0 -205 1 -219 21 -244 15 -19 30 -26 54 -26 24 0 39 7 54 26 20
25 21 39 21 236 0 306 -8 298 285 298 l195 0 0 -73 c0 -139 53 -236 154 -283
97 -45 225 -26 299 44 54 51 79 117 85 220 l5 92 278 0 279 0 0 -73 c0 -95 21
-163 67 -216 126 -148 372 -111 449 67 9 20 19 78 21 130 l6 92 277 0 277 0 6
-92 c2 -52 12 -110 21 -130 77 -178 323 -215 449 -67 46 53 67 121 67 216 l0
73 195 0 c156 0 202 -3 225 -15 64 -33 60 82 60 -1658 l0 -1584 23 -21 c31
-29 77 -29 105 1 l22 23 0 1590 c0 1767 5 1640 -67 1724 -21 24 -60 53 -87 66
-48 23 -61 24 -263 24 l-211 0 -4 188 c-3 209 -13 245 -78 310 -56 57 -105 77
-190 77 -85 0 -134 -20 -190 -77 -65 -65 -75 -101 -78 -310 l-4 -188 -278 0
-278 0 -4 188 c-3 209 -13 245 -78 310 -56 57 -105 77 -190 77 -85 0 -134 -20
-190 -77 -65 -65 -75 -101 -78 -310 l-4 -188 -278 0 -278 0 -4 188 c-3 209
-13 245 -78 310 -69 70 -189 100 -273 68z m133 -149 c13 -7 35 -28 47 -46 23
-34 23 -38 23 -343 0 -334 -3 -358 -53 -391 -37 -24 -108 -22 -140 4 -45 34
-48 70 -45 406 l3 311 25 27 c41 45 92 56 140 32z m1100 0 c13 -7 35 -28 47
-46 23 -34 23 -38 23 -343 0 -334 -3 -358 -53 -391 -33 -22 -105 -22 -136 -1
-47 34 -51 61 -51 392 0 305 0 309 23 343 25 38 60 59 97 59 14 0 36 -6 50
-13z m1100 0 c13 -7 35 -28 47 -46 23 -34 23 -38 23 -343 0 -331 -4 -358 -51
-392 -31 -21 -103 -21 -136 1 -50 33 -53 57 -53 391 0 305 0 309 23 343 25 38
60 59 97 59 14 0 36 -6 50 -13z"/>
<path d="M603 3620 c-12 -5 -26 -18 -32 -29 -8 -14 -11 -528 -11 -1694 0
-1889 -7 -1731 80 -1817 86 -87 -85 -80 1920 -80 2005 0 1834 -7 1920 80 77
76 80 95 80 447 0 180 -4 312 -10 323 -23 43 -116 40 -134 -5 -3 -9 -6 -149
-6 -311 0 -244 -3 -300 -15 -324 -33 -64 100 -60 -1835 -60 -1555 0 -1764 2
-1790 15 -64 33 -60 -91 -60 1743 0 1576 -1 1671 -17 1690 -21 25 -60 35 -90
22z"/>
<path d="M1815 3610 c-11 -4 -112 -119 -224 -254 -112 -136 -206 -244 -209
-241 -3 3 -28 40 -56 83 -47 71 -54 77 -88 80 -45 4 -78 -24 -78 -66 0 -17 31
-78 81 -160 89 -145 111 -165 160 -140 23 11 175 188 446 518 74 91 83 117 51
153 -27 30 -55 39 -83 27z"/>
<path d="M2160 3331 c-210 -64 -240 -339 -48 -435 l52 -26 834 0 c629 0 845 3
876 12 54 16 128 90 144 144 28 96 -3 206 -74 260 -71 55 -60 54 -943 53 -449
0 -827 -4 -841 -8z m1673 -153 c53 -28 64 -92 22 -133 l-24 -25 -825 0 -824 0
-27 32 c-21 25 -25 38 -21 61 7 36 23 56 51 67 33 14 1622 12 1648 -2z"/>
<path d="M1815 2620 c-11 -4 -112 -119 -224 -254 -112 -136 -206 -244 -209
-241 -3 3 -28 40 -56 83 -47 71 -54 77 -88 80 -45 4 -78 -24 -78 -66 0 -17 31
-78 81 -160 89 -145 111 -165 161 -140 21 11 206 225 470 548 49 61 56 90 26
123 -27 30 -55 39 -83 27z"/>
<path d="M2185 2343 c-86 -20 -142 -59 -174 -122 -60 -118 -12 -265 104 -320
45 -21 49 -21 892 -21 805 0 850 1 888 19 84 39 135 120 135 213 -1 91 -47
165 -131 210 l-44 23 -825 1 c-454 1 -834 0 -845 -3z m1671 -176 c31 -37 31
-81 -1 -112 l-24 -25 -826 0 c-808 0 -825 0 -845 20 -26 26 -33 60 -21 93 22
58 2 57 884 54 l809 -2 24 -28z"/>
<path d="M1812 1623 c-7 -3 -104 -114 -214 -247 -111 -132 -204 -245 -208
-249 -4 -4 -29 28 -56 72 -62 102 -96 121 -148 80 -43 -34 -35 -67 49 -204 88
-143 101 -158 147 -153 30 3 56 30 276 293 134 160 248 301 253 314 23 58 -40
118 -99 94z"/>
<path d="M2115 1330 c-86 -42 -144 -150 -130 -243 15 -97 91 -176 188 -197 37
-7 302 -10 867 -8 l815 3 44 23 c84 45 130 119 131 210 0 93 -51 174 -135 213
-38 18 -83 19 -890 18 -822 0 -851 0 -890 -19z m1740 -155 c32 -31 32 -75 1
-112 l-24 -28 -806 -3 c-690 -2 -811 0 -841 12 -58 24 -70 91 -25 136 20 20
37 20 845 20 l826 0 24 -25z"/>
</g>
</svg>
