<?xml version="1.0" standalone="no"?>
<!DOCTYPE svg PUBLIC "-//W3C//DTD SVG 20010904//EN"
 "http://www.w3.org/TR/2001/REC-SVG-20010904/DTD/svg10.dtd">
<svg version="1.0" xmlns="http://www.w3.org/2000/svg"
 width="225.000000pt" height="225.000000pt" viewBox="0 0 225.000000 225.000000"
 preserveAspectRatio="xMidYMid meet">
<metadata>
Created by potrace 1.16, written by Peter Selinger 2001-2019
</metadata>
<g transform="translate(0.000000,225.000000) scale(0.100000,-0.100000)"
fill="#000000" stroke="none">
<path d="M1030 2234 c-144 -52 -230 -181 -217 -324 24 -264 335 -383 528 -203
67 62 93 128 94 228 0 93 -21 148 -80 213 -76 85 -221 123 -325 86z m219 -49
c134 -68 194 -236 132 -367 -105 -218 -407 -219 -512 0 -32 66 -32 169 0 232
76 148 240 207 380 135z"/>
<path d="M970 2040 c0 -78 16 -115 57 -131 15 -5 23 -17 23 -32 0 -87 71 -139
143 -106 28 13 57 58 57 89 0 12 7 28 15 36 18 18 20 55 3 72 -7 7 -24 12 -38
12 -14 0 -31 -5 -38 -12 -17 -17 -15 -53 3 -68 35 -29 3 -110 -44 -110 -30 0
-61 32 -67 70 -5 31 -2 37 25 52 43 24 63 68 59 136 -3 54 -4 57 -30 60 -20 2
-28 -1 -28 -12 0 -8 5 -18 10 -21 6 -3 10 -28 10 -55 0 -41 -4 -52 -26 -69
-34 -27 -50 -26 -79 4 -20 19 -25 34 -25 75 0 39 3 50 16 50 26 0 9 25 -19 28
l-27 3 0 -71z"/>
<path d="M1873 1540 c-96 -20 -178 -82 -220 -168 -24 -49 -28 -69 -28 -142 0
-102 21 -156 85 -220 63 -63 129 -90 223 -90 92 0 158 26 221 87 123 119 123
327 0 448 -72 70 -186 105 -281 85z m182 -56 c76 -36 149 -132 157 -209 l3
-30 -60 -3 c-45 -2 -66 -9 -83 -25 l-22 -21 -16 22 c-21 31 -31 28 -51 -15
l-17 -38 -7 108 c-4 60 -10 111 -13 114 -11 11 -25 -10 -41 -60 -23 -68 -29
-73 -54 -48 -28 28 -38 27 -56 -9 -15 -29 -18 -30 -80 -30 -36 0 -65 4 -65 8
0 5 7 31 15 59 26 88 91 159 174 190 49 18 165 12 216 -13z m-108 -411 c7 -3
23 20 38 54 22 49 28 55 36 41 14 -25 23 -23 62 12 28 24 44 30 81 30 42 0 46
-2 46 -25 0 -37 -39 -113 -77 -151 -134 -134 -362 -100 -445 66 -15 30 -28 66
-30 80 -3 25 -2 25 74 28 66 2 78 6 83 22 8 26 17 25 45 -5 26 -27 36 -25 53
13 10 24 12 16 17 -67 3 -62 9 -96 17 -98z"/>
<path d="M240 1521 c-91 -29 -159 -85 -201 -163 -30 -56 -33 -71 -34 -143 0
-61 5 -91 21 -126 30 -64 88 -125 148 -157 44 -22 64 -26 141 -27 74 0 98 4
136 23 58 28 123 93 152 152 31 63 31 194 1 261 -50 108 -156 179 -274 185
-36 2 -76 0 -90 -5z m201 -57 c101 -50 168 -171 156 -277 -14 -115 -92 -210
-200 -242 -64 -19 -100 -19 -166 1 -65 19 -133 79 -169 149 -20 39 -26 65 -26
115 0 212 217 348 405 254z"/>
<path d="M252 1378 c-6 -6 -12 -29 -12 -50 0 -37 -1 -38 -37 -38 -58 0 -64 -8
-61 -81 l3 -64 48 -3 47 -3 0 -37 c0 -57 8 -63 81 -60 l64 3 3 47 3 47 47 3
47 3 3 64 c3 73 -3 81 -60 81 l-37 0 -3 48 -3 47 -60 3 c-38 2 -65 -2 -73 -10z
m103 -73 l0 -50 53 -3 52 -3 0 -40 0 -39 -52 0 -53 0 0 -47 0 -48 -37 -3 -38
-3 0 50 0 50 -52 3 -53 3 -3 38 -3 37 55 0 56 0 0 48 c0 58 3 62 44 59 30 -3
31 -4 31 -52z"/>
<path d="M825 1446 c-40 -17 -82 -67 -95 -114 -8 -25 -10 -213 -8 -587 l3
-550 23 -37 c14 -23 42 -46 74 -62 48 -24 63 -26 179 -26 122 0 127 1 122 20
-5 19 -14 20 -137 20 -112 0 -136 3 -163 20 -66 40 -65 22 -65 643 0 534 1
561 19 585 29 39 64 62 105 68 35 6 38 4 52 -29 8 -19 23 -40 34 -46 12 -7 80
-11 164 -11 157 1 170 5 189 59 14 39 50 42 99 9 72 -50 69 -30 72 -466 3
-336 5 -394 18 -402 13 -8 15 36 18 373 2 251 -1 395 -8 419 -14 48 -55 97
-97 114 -46 20 -554 19 -598 0z m465 -30 c0 -8 -7 -22 -16 -30 -12 -13 -41
-16 -149 -16 -127 0 -135 1 -149 22 -9 12 -16 26 -16 30 0 5 74 8 165 8 136 0
165 -2 165 -14z"/>
<path d="M1374 515 c-12 -18 -22 -24 -35 -20 -12 4 -28 -3 -44 -19 -16 -16
-37 -26 -55 -26 -19 0 -34 -7 -42 -20 -17 -26 -21 -25 -70 10 -48 35 -80 38
-108 10 -40 -40 -24 -65 90 -146 52 -37 105 -76 118 -88 l23 -20 -43 -16 c-77
-28 -74 -95 6 -119 17 -5 89 -15 159 -22 90 -8 130 -16 134 -25 3 -9 20 -14
43 -14 37 0 41 4 118 107 44 60 85 117 92 129 16 26 5 74 -16 74 -9 0 -47 28
-83 63 -93 87 -208 167 -243 167 -18 0 -33 -8 -44 -25z m135 -60 c43 -31 101
-80 130 -109 l53 -54 -86 -116 c-53 -71 -94 -116 -104 -116 -22 0 -248 29
-284 36 -19 4 -28 12 -28 24 0 27 16 33 84 34 34 1 63 6 66 11 2 6 -63 59
-145 118 -111 80 -150 114 -150 129 0 12 5 23 11 25 6 2 78 -44 160 -103 154
-110 184 -127 184 -102 0 8 -40 43 -90 79 -55 39 -90 71 -90 82 0 37 31 28
119 -37 50 -36 95 -66 101 -66 28 0 3 34 -60 79 -46 34 -70 58 -70 71 0 32 30
24 95 -23 82 -59 81 -59 94 -43 9 11 1 21 -41 52 -63 46 -70 54 -56 71 16 20
26 17 107 -42z"/>
</g>
</svg>
