<?xml version="1.0" standalone="no"?>
<!DOCTYPE svg PUBLIC "-//W3C//DTD SVG 20010904//EN"
 "http://www.w3.org/TR/2001/REC-SVG-20010904/DTD/svg10.dtd">
<svg version="1.0" xmlns="http://www.w3.org/2000/svg"
 width="100.000000pt" height="100.000000pt" viewBox="0 0 100.000000 100.000000"
 preserveAspectRatio="xMidYMid meet">

<g transform="translate(0.000000,100.000000) scale(0.100000,-0.100000)"
fill="#000000" stroke="none">
<path d="M320 980 c0 -19 -7 -20 -104 -20 -82 0 -108 -3 -120 -16 -14 -14 -16
-70 -16 -464 0 -394 2 -450 16 -464 13 -14 64 -16 404 -16 340 0 391 2 404 16
14 14 16 70 16 464 0 394 -2 450 -16 464 -12 13 -38 16 -120 16 -97 0 -104 1
-104 20 0 19 -7 20 -180 20 -173 0 -180 -1 -180 -20z m320 -80 l0 -60 -140 0
-140 0 0 60 0 60 140 0 140 0 0 -60z m-320 0 c0 -18 -7 -20 -70 -20 l-70 0 0
-390 0 -390 320 0 320 0 0 390 0 390 -70 0 c-63 0 -70 2 -70 20 0 19 7 20 100
20 l100 0 0 -440 0 -440 -380 0 -380 0 0 440 0 440 100 0 c93 0 100 -1 100
-20z m0 -80 c0 -19 7 -20 180 -20 173 0 180 1 180 20 0 17 7 20 50 20 l50 0 0
-350 0 -350 -280 0 -280 0 0 350 0 350 50 0 c43 0 50 -3 50 -20z"/>
<path d="M520 720 c0 -19 7 -20 90 -20 83 0 90 1 90 20 0 19 -7 20 -90 20 -83
0 -90 -1 -90 -20z"/>
<path d="M360 670 c0 -27 -3 -30 -30 -30 -23 0 -30 -4 -30 -20 0 -16 7 -20 30
-20 27 0 30 -3 30 -30 0 -23 4 -30 20 -30 16 0 20 7 20 30 0 27 3 30 30 30 23
0 30 4 30 20 0 16 -7 20 -30 20 -27 0 -30 3 -30 30 0 23 -4 30 -20 30 -16 0
-20 -7 -20 -30z"/>
<path d="M520 620 c0 -19 7 -20 90 -20 83 0 90 1 90 20 0 19 -7 20 -90 20 -83
0 -90 -1 -90 -20z"/>
<path d="M520 520 c0 -19 7 -20 90 -20 83 0 90 1 90 20 0 19 -7 20 -90 20 -83
0 -90 -1 -90 -20z"/>
<path d="M300 420 c0 -19 7 -20 200 -20 193 0 200 1 200 20 0 19 -7 20 -200
20 -193 0 -200 -1 -200 -20z"/>
<path d="M300 320 c0 -19 7 -20 200 -20 193 0 200 1 200 20 0 19 -7 20 -200
20 -193 0 -200 -1 -200 -20z"/>
<path d="M300 220 c0 -19 7 -20 200 -20 193 0 200 1 200 20 0 19 -7 20 -200
20 -193 0 -200 -1 -200 -20z"/>
</g>
</svg>
